<mxfile host="65bd71144e">
    <diagram id="PH01zIgMl0OhUPqZiQ4F" name="reset flow">
        <mxGraphModel dx="1216" dy="579" grid="1" gridSize="1" guides="1" tooltips="1" connect="1" arrows="1" fold="1" page="1" pageScale="1" pageWidth="1169" pageHeight="827" math="0" shadow="0">
            <root>
                <mxCell id="0"/>
                <mxCell id="1" parent="0"/>
                <mxCell id="iVrgBmimAy_vUalIBpS--4" value="" style="edgeStyle=none;html=1;fontSize=16;" edge="1" parent="1" source="iVrgBmimAy_vUalIBpS--1" target="iVrgBmimAy_vUalIBpS--3">
                    <mxGeometry relative="1" as="geometry"/>
                </mxCell>
                <mxCell id="iVrgBmimAy_vUalIBpS--1" value="&lt;font style=&quot;font-size: 16px;&quot;&gt;start&lt;/font&gt;" style="ellipse;whiteSpace=wrap;html=1;fontSize=11;" vertex="1" parent="1">
                    <mxGeometry x="302" y="152" width="142" height="47" as="geometry"/>
                </mxCell>
                <mxCell id="iVrgBmimAy_vUalIBpS--17" value="" style="edgeStyle=none;rounded=0;html=1;fontSize=16;" edge="1" parent="1" source="iVrgBmimAy_vUalIBpS--3" target="iVrgBmimAy_vUalIBpS--16">
                    <mxGeometry relative="1" as="geometry"/>
                </mxCell>
                <mxCell id="iVrgBmimAy_vUalIBpS--3" value="&lt;font style=&quot;font-size: 16px;&quot;&gt;core reset input&lt;/font&gt;" style="shape=parallelogram;perimeter=parallelogramPerimeter;whiteSpace=wrap;html=1;fixedSize=1;fontSize=11;" vertex="1" parent="1">
                    <mxGeometry x="267.5" y="248" width="211" height="91" as="geometry"/>
                </mxCell>
                <mxCell id="iVrgBmimAy_vUalIBpS--12" value="" style="edgeStyle=orthogonalEdgeStyle;rounded=0;html=1;fontSize=16;" edge="1" parent="1" source="iVrgBmimAy_vUalIBpS--5" target="iVrgBmimAy_vUalIBpS--11">
                    <mxGeometry relative="1" as="geometry"/>
                </mxCell>
                <mxCell id="iVrgBmimAy_vUalIBpS--13" value="Yes" style="edgeLabel;html=1;align=center;verticalAlign=middle;resizable=0;points=[];fontSize=16;" vertex="1" connectable="0" parent="iVrgBmimAy_vUalIBpS--12">
                    <mxGeometry x="-0.3385" y="3" relative="1" as="geometry">
                        <mxPoint x="15" y="-17" as="offset"/>
                    </mxGeometry>
                </mxCell>
                <mxCell id="iVrgBmimAy_vUalIBpS--5" value="&amp;nbsp;Is Phy rx interface reset done" style="rhombus;whiteSpace=wrap;html=1;fontSize=11;" vertex="1" parent="1">
                    <mxGeometry x="264" y="543" width="220" height="80" as="geometry"/>
                </mxCell>
                <mxCell id="iVrgBmimAy_vUalIBpS--7" style="edgeStyle=orthogonalEdgeStyle;html=1;fontSize=16;rounded=0;exitX=0.5;exitY=1;exitDx=0;exitDy=0;entryX=0;entryY=0.5;entryDx=0;entryDy=0;" edge="1" parent="1" source="iVrgBmimAy_vUalIBpS--5" target="iVrgBmimAy_vUalIBpS--5">
                    <mxGeometry relative="1" as="geometry">
                        <mxPoint x="363" y="770" as="sourcePoint"/>
                        <mxPoint x="287" y="684" as="targetPoint"/>
                        <Array as="points">
                            <mxPoint x="374" y="688"/>
                            <mxPoint x="218" y="688"/>
                            <mxPoint x="218" y="583"/>
                        </Array>
                    </mxGeometry>
                </mxCell>
                <mxCell id="iVrgBmimAy_vUalIBpS--9" value="No" style="edgeLabel;html=1;align=center;verticalAlign=middle;resizable=0;points=[];fontSize=16;" vertex="1" connectable="0" parent="iVrgBmimAy_vUalIBpS--7">
                    <mxGeometry x="-0.6723" y="-3" relative="1" as="geometry">
                        <mxPoint x="25" y="-16" as="offset"/>
                    </mxGeometry>
                </mxCell>
                <mxCell id="iVrgBmimAy_vUalIBpS--15" value="" style="rounded=0;html=1;fontSize=16;" edge="1" parent="1" source="iVrgBmimAy_vUalIBpS--11" target="iVrgBmimAy_vUalIBpS--14">
                    <mxGeometry relative="1" as="geometry"/>
                </mxCell>
                <mxCell id="iVrgBmimAy_vUalIBpS--11" value="Tell the core Phy rx interface reset done" style="whiteSpace=wrap;html=1;fontSize=11;" vertex="1" parent="1">
                    <mxGeometry x="593" y="553" width="120" height="60" as="geometry"/>
                </mxCell>
                <mxCell id="iVrgBmimAy_vUalIBpS--14" value="END" style="ellipse;whiteSpace=wrap;html=1;fontSize=11;" vertex="1" parent="1">
                    <mxGeometry x="567" y="435" width="171" height="54" as="geometry"/>
                </mxCell>
                <mxCell id="iVrgBmimAy_vUalIBpS--18" style="edgeStyle=none;rounded=0;html=1;entryX=0.5;entryY=0;entryDx=0;entryDy=0;fontSize=16;" edge="1" parent="1" source="iVrgBmimAy_vUalIBpS--16" target="iVrgBmimAy_vUalIBpS--5">
                    <mxGeometry relative="1" as="geometry"/>
                </mxCell>
                <mxCell id="iVrgBmimAy_vUalIBpS--16" value="&lt;font style=&quot;font-size: 16px;&quot;&gt;core gt reset output&lt;/font&gt;" style="shape=parallelogram;perimeter=parallelogramPerimeter;whiteSpace=wrap;html=1;fixedSize=1;fontSize=11;" vertex="1" parent="1">
                    <mxGeometry x="267.5" y="394" width="211" height="85.5" as="geometry"/>
                </mxCell>
            </root>
        </mxGraphModel>
    </diagram>
    <diagram id="a4yvvFmO50-LNi0fs_L4" name="frame_hierachy">
        <mxGraphModel dx="1216" dy="579" grid="1" gridSize="1" guides="1" tooltips="1" connect="1" arrows="1" fold="1" page="1" pageScale="1" pageWidth="1169" pageHeight="827" math="0" shadow="0">
            <root>
                <mxCell id="0"/>
                <mxCell id="1" parent="0"/>
                <mxCell id="v8HRsV0RRFcLY4EJ3_44-1" value="" style="rounded=0;whiteSpace=wrap;html=1;" vertex="1" parent="1">
                    <mxGeometry x="330" y="200" width="120" height="60" as="geometry"/>
                </mxCell>
                <mxCell id="v8HRsV0RRFcLY4EJ3_44-3" value="" style="endArrow=none;html=1;exitX=0.25;exitY=1;exitDx=0;exitDy=0;entryX=0.25;entryY=0;entryDx=0;entryDy=0;" edge="1" parent="1" source="v8HRsV0RRFcLY4EJ3_44-1" target="v8HRsV0RRFcLY4EJ3_44-1">
                    <mxGeometry width="50" height="50" relative="1" as="geometry">
                        <mxPoint x="470" y="300" as="sourcePoint"/>
                        <mxPoint x="520" y="250" as="targetPoint"/>
                    </mxGeometry>
                </mxCell>
                <mxCell id="v8HRsV0RRFcLY4EJ3_44-4" value="" style="endArrow=none;html=1;exitX=0.5;exitY=1;exitDx=0;exitDy=0;entryX=0.5;entryY=0;entryDx=0;entryDy=0;" edge="1" parent="1" source="v8HRsV0RRFcLY4EJ3_44-1" target="v8HRsV0RRFcLY4EJ3_44-1">
                    <mxGeometry width="50" height="50" relative="1" as="geometry">
                        <mxPoint x="440" y="269.9999999999999" as="sourcePoint"/>
                        <mxPoint x="440" y="210" as="targetPoint"/>
                    </mxGeometry>
                </mxCell>
                <mxCell id="v8HRsV0RRFcLY4EJ3_44-5" value="" style="endArrow=none;html=1;exitX=0.75;exitY=1;exitDx=0;exitDy=0;entryX=0.75;entryY=0;entryDx=0;entryDy=0;" edge="1" parent="1" source="v8HRsV0RRFcLY4EJ3_44-1" target="v8HRsV0RRFcLY4EJ3_44-1">
                    <mxGeometry width="50" height="50" relative="1" as="geometry">
                        <mxPoint x="450" y="279.9999999999999" as="sourcePoint"/>
                        <mxPoint x="450" y="220" as="targetPoint"/>
                    </mxGeometry>
                </mxCell>
                <mxCell id="v8HRsV0RRFcLY4EJ3_44-6" value="Start of mutil frame&lt;br&gt;set to 1" style="text;html=1;strokeColor=none;fillColor=none;align=center;verticalAlign=middle;whiteSpace=wrap;rounded=0;" vertex="1" parent="1">
                    <mxGeometry x="454" y="216.5" width="120" height="27" as="geometry"/>
                </mxCell>
                <mxCell id="v8HRsV0RRFcLY4EJ3_44-7" value="" style="endArrow=none;html=1;exitX=0;exitY=0;exitDx=0;exitDy=0;" edge="1" parent="1" source="v8HRsV0RRFcLY4EJ3_44-9">
                    <mxGeometry width="50" height="50" relative="1" as="geometry">
                        <mxPoint x="275" y="318" as="sourcePoint"/>
                        <mxPoint x="330" y="260" as="targetPoint"/>
                    </mxGeometry>
                </mxCell>
                <mxCell id="v8HRsV0RRFcLY4EJ3_44-8" value="" style="endArrow=none;html=1;entryX=0.25;entryY=1;entryDx=0;entryDy=0;exitX=1;exitY=0;exitDx=0;exitDy=0;" edge="1" parent="1" source="v8HRsV0RRFcLY4EJ3_44-9" target="v8HRsV0RRFcLY4EJ3_44-1">
                    <mxGeometry width="50" height="50" relative="1" as="geometry">
                        <mxPoint x="409" y="314" as="sourcePoint"/>
                        <mxPoint x="331" y="261" as="targetPoint"/>
                    </mxGeometry>
                </mxCell>
                <mxCell id="v8HRsV0RRFcLY4EJ3_44-9" value="" style="rounded=0;whiteSpace=wrap;html=1;" vertex="1" parent="1">
                    <mxGeometry x="285" y="320" width="120" height="60" as="geometry"/>
                </mxCell>
                <mxCell id="v8HRsV0RRFcLY4EJ3_44-10" value="" style="endArrow=none;html=1;entryX=0.25;entryY=0;entryDx=0;entryDy=0;exitX=0.25;exitY=1;exitDx=0;exitDy=0;" edge="1" parent="1" source="v8HRsV0RRFcLY4EJ3_44-9" target="v8HRsV0RRFcLY4EJ3_44-9">
                    <mxGeometry width="50" height="50" relative="1" as="geometry">
                        <mxPoint x="454" y="377" as="sourcePoint"/>
                        <mxPoint x="504" y="327" as="targetPoint"/>
                    </mxGeometry>
                </mxCell>
                <mxCell id="v8HRsV0RRFcLY4EJ3_44-11" value="" style="endArrow=none;html=1;entryX=0.5;entryY=0;entryDx=0;entryDy=0;exitX=0.5;exitY=1;exitDx=0;exitDy=0;" edge="1" parent="1" source="v8HRsV0RRFcLY4EJ3_44-9" target="v8HRsV0RRFcLY4EJ3_44-9">
                    <mxGeometry width="50" height="50" relative="1" as="geometry">
                        <mxPoint x="336" y="382" as="sourcePoint"/>
                        <mxPoint x="336" y="322" as="targetPoint"/>
                    </mxGeometry>
                </mxCell>
                <mxCell id="v8HRsV0RRFcLY4EJ3_44-12" value="" style="endArrow=none;html=1;entryX=0.75;entryY=0;entryDx=0;entryDy=0;exitX=0.75;exitY=1;exitDx=0;exitDy=0;" edge="1" parent="1" source="v8HRsV0RRFcLY4EJ3_44-9" target="v8HRsV0RRFcLY4EJ3_44-9">
                    <mxGeometry width="50" height="50" relative="1" as="geometry">
                        <mxPoint x="369" y="391" as="sourcePoint"/>
                        <mxPoint x="369" y="331" as="targetPoint"/>
                    </mxGeometry>
                </mxCell>
                <mxCell id="v8HRsV0RRFcLY4EJ3_44-27" style="edgeStyle=none;html=1;entryX=0;entryY=0.5;entryDx=0;entryDy=0;fontSize=11;" edge="1" parent="1" source="v8HRsV0RRFcLY4EJ3_44-13" target="v8HRsV0RRFcLY4EJ3_44-26">
                    <mxGeometry relative="1" as="geometry"/>
                </mxCell>
                <mxCell id="v8HRsV0RRFcLY4EJ3_44-13" value="Start of frame&lt;br&gt;set to 0101" style="text;html=1;strokeColor=none;fillColor=none;align=center;verticalAlign=middle;whiteSpace=wrap;rounded=0;" vertex="1" parent="1">
                    <mxGeometry x="408" y="329.5" width="92" height="42" as="geometry"/>
                </mxCell>
                <mxCell id="v8HRsV0RRFcLY4EJ3_44-15" value="" style="shape=curlyBracket;whiteSpace=wrap;html=1;rounded=1;labelPosition=left;verticalLabelPosition=middle;align=right;verticalAlign=middle;rotation=-90;" vertex="1" parent="1">
                    <mxGeometry x="365.5" y="363.5" width="20" height="59" as="geometry"/>
                </mxCell>
                <mxCell id="v8HRsV0RRFcLY4EJ3_44-22" style="edgeStyle=none;html=1;fontSize=11;entryX=0.5;entryY=0;entryDx=0;entryDy=0;" edge="1" parent="1" source="v8HRsV0RRFcLY4EJ3_44-16" target="v8HRsV0RRFcLY4EJ3_44-23">
                    <mxGeometry relative="1" as="geometry">
                        <mxPoint x="402" y="424" as="targetPoint"/>
                    </mxGeometry>
                </mxCell>
                <mxCell id="v8HRsV0RRFcLY4EJ3_44-16" value="0" style="text;html=1;strokeColor=none;fillColor=none;align=center;verticalAlign=middle;whiteSpace=wrap;rounded=0;" vertex="1" parent="1">
                    <mxGeometry x="388" y="338" width="26" height="27" as="geometry"/>
                </mxCell>
                <mxCell id="v8HRsV0RRFcLY4EJ3_44-17" value="31" style="text;html=1;strokeColor=none;fillColor=none;align=center;verticalAlign=middle;whiteSpace=wrap;rounded=0;" vertex="1" parent="1">
                    <mxGeometry x="279" y="338" width="26" height="27" as="geometry"/>
                </mxCell>
                <mxCell id="v8HRsV0RRFcLY4EJ3_44-18" value="" style="shape=curlyBracket;whiteSpace=wrap;html=1;rounded=1;labelPosition=left;verticalLabelPosition=middle;align=right;verticalAlign=middle;rotation=-90;" vertex="1" parent="1">
                    <mxGeometry x="305" y="363.5" width="20" height="59" as="geometry"/>
                </mxCell>
                <mxCell id="v8HRsV0RRFcLY4EJ3_44-25" style="edgeStyle=none;html=1;entryX=0.75;entryY=0;entryDx=0;entryDy=0;fontSize=11;" edge="1" parent="1" source="v8HRsV0RRFcLY4EJ3_44-19" target="v8HRsV0RRFcLY4EJ3_44-24">
                    <mxGeometry relative="1" as="geometry"/>
                </mxCell>
                <mxCell id="v8HRsV0RRFcLY4EJ3_44-19" value="16" style="text;html=1;strokeColor=none;fillColor=none;align=center;verticalAlign=middle;whiteSpace=wrap;rounded=0;" vertex="1" parent="1">
                    <mxGeometry x="322" y="338" width="26" height="27" as="geometry"/>
                </mxCell>
                <mxCell id="v8HRsV0RRFcLY4EJ3_44-23" value="start of [7:0]" style="text;html=1;strokeColor=none;fillColor=none;align=center;verticalAlign=middle;whiteSpace=wrap;rounded=0;" vertex="1" parent="1">
                    <mxGeometry x="360" y="422" width="82" height="27" as="geometry"/>
                </mxCell>
                <mxCell id="v8HRsV0RRFcLY4EJ3_44-24" value="start of [23:16]" style="text;html=1;strokeColor=none;fillColor=none;align=center;verticalAlign=middle;whiteSpace=wrap;rounded=0;" vertex="1" parent="1">
                    <mxGeometry x="274" y="422" width="82" height="27" as="geometry"/>
                </mxCell>
                <mxCell id="v8HRsV0RRFcLY4EJ3_44-26" value="lane 0" style="text;html=1;strokeColor=none;fillColor=none;align=center;verticalAlign=middle;whiteSpace=wrap;rounded=0;fontSize=11;" vertex="1" parent="1">
                    <mxGeometry x="525" y="337.5" width="49" height="26" as="geometry"/>
                </mxCell>
                <mxCell id="v8HRsV0RRFcLY4EJ3_44-28" value="" style="rounded=0;whiteSpace=wrap;html=1;" vertex="1" parent="1">
                    <mxGeometry x="286" y="453" width="120" height="60" as="geometry"/>
                </mxCell>
                <mxCell id="v8HRsV0RRFcLY4EJ3_44-29" value="" style="endArrow=none;html=1;entryX=0.25;entryY=0;entryDx=0;entryDy=0;exitX=0.25;exitY=1;exitDx=0;exitDy=0;" edge="1" parent="1" source="v8HRsV0RRFcLY4EJ3_44-28" target="v8HRsV0RRFcLY4EJ3_44-28">
                    <mxGeometry width="50" height="50" relative="1" as="geometry">
                        <mxPoint x="455" y="510" as="sourcePoint"/>
                        <mxPoint x="505" y="460" as="targetPoint"/>
                    </mxGeometry>
                </mxCell>
                <mxCell id="v8HRsV0RRFcLY4EJ3_44-30" value="" style="endArrow=none;html=1;entryX=0.5;entryY=0;entryDx=0;entryDy=0;exitX=0.5;exitY=1;exitDx=0;exitDy=0;" edge="1" parent="1" source="v8HRsV0RRFcLY4EJ3_44-28" target="v8HRsV0RRFcLY4EJ3_44-28">
                    <mxGeometry width="50" height="50" relative="1" as="geometry">
                        <mxPoint x="337" y="515" as="sourcePoint"/>
                        <mxPoint x="337" y="455" as="targetPoint"/>
                    </mxGeometry>
                </mxCell>
                <mxCell id="v8HRsV0RRFcLY4EJ3_44-31" value="" style="endArrow=none;html=1;entryX=0.75;entryY=0;entryDx=0;entryDy=0;exitX=0.75;exitY=1;exitDx=0;exitDy=0;" edge="1" parent="1" source="v8HRsV0RRFcLY4EJ3_44-28" target="v8HRsV0RRFcLY4EJ3_44-28">
                    <mxGeometry width="50" height="50" relative="1" as="geometry">
                        <mxPoint x="370" y="524" as="sourcePoint"/>
                        <mxPoint x="370" y="464" as="targetPoint"/>
                    </mxGeometry>
                </mxCell>
                <mxCell id="v8HRsV0RRFcLY4EJ3_44-32" style="edgeStyle=none;html=1;entryX=0;entryY=0.5;entryDx=0;entryDy=0;fontSize=11;" edge="1" parent="1" source="v8HRsV0RRFcLY4EJ3_44-33" target="v8HRsV0RRFcLY4EJ3_44-43">
                    <mxGeometry relative="1" as="geometry"/>
                </mxCell>
                <mxCell id="v8HRsV0RRFcLY4EJ3_44-33" value="Start of frame&lt;br&gt;set to 0101" style="text;html=1;strokeColor=none;fillColor=none;align=center;verticalAlign=middle;whiteSpace=wrap;rounded=0;" vertex="1" parent="1">
                    <mxGeometry x="409" y="462.5" width="92" height="42" as="geometry"/>
                </mxCell>
                <mxCell id="v8HRsV0RRFcLY4EJ3_44-34" value="" style="shape=curlyBracket;whiteSpace=wrap;html=1;rounded=1;labelPosition=left;verticalLabelPosition=middle;align=right;verticalAlign=middle;rotation=-90;" vertex="1" parent="1">
                    <mxGeometry x="366.5" y="496.5" width="20" height="59" as="geometry"/>
                </mxCell>
                <mxCell id="v8HRsV0RRFcLY4EJ3_44-35" style="edgeStyle=none;html=1;fontSize=11;entryX=0.5;entryY=0;entryDx=0;entryDy=0;" edge="1" parent="1" source="v8HRsV0RRFcLY4EJ3_44-36" target="v8HRsV0RRFcLY4EJ3_44-41">
                    <mxGeometry relative="1" as="geometry">
                        <mxPoint x="403" y="557" as="targetPoint"/>
                    </mxGeometry>
                </mxCell>
                <mxCell id="v8HRsV0RRFcLY4EJ3_44-36" value="0" style="text;html=1;strokeColor=none;fillColor=none;align=center;verticalAlign=middle;whiteSpace=wrap;rounded=0;" vertex="1" parent="1">
                    <mxGeometry x="389" y="471" width="26" height="27" as="geometry"/>
                </mxCell>
                <mxCell id="v8HRsV0RRFcLY4EJ3_44-37" value="31" style="text;html=1;strokeColor=none;fillColor=none;align=center;verticalAlign=middle;whiteSpace=wrap;rounded=0;" vertex="1" parent="1">
                    <mxGeometry x="280" y="471" width="26" height="27" as="geometry"/>
                </mxCell>
                <mxCell id="v8HRsV0RRFcLY4EJ3_44-38" value="" style="shape=curlyBracket;whiteSpace=wrap;html=1;rounded=1;labelPosition=left;verticalLabelPosition=middle;align=right;verticalAlign=middle;rotation=-90;" vertex="1" parent="1">
                    <mxGeometry x="306" y="496.5" width="20" height="59" as="geometry"/>
                </mxCell>
                <mxCell id="v8HRsV0RRFcLY4EJ3_44-39" style="edgeStyle=none;html=1;entryX=0.75;entryY=0;entryDx=0;entryDy=0;fontSize=11;" edge="1" parent="1" source="v8HRsV0RRFcLY4EJ3_44-40" target="v8HRsV0RRFcLY4EJ3_44-42">
                    <mxGeometry relative="1" as="geometry"/>
                </mxCell>
                <mxCell id="v8HRsV0RRFcLY4EJ3_44-40" value="16" style="text;html=1;strokeColor=none;fillColor=none;align=center;verticalAlign=middle;whiteSpace=wrap;rounded=0;" vertex="1" parent="1">
                    <mxGeometry x="323" y="471" width="26" height="27" as="geometry"/>
                </mxCell>
                <mxCell id="v8HRsV0RRFcLY4EJ3_44-41" value="start of [39:32]" style="text;html=1;strokeColor=none;fillColor=none;align=center;verticalAlign=middle;whiteSpace=wrap;rounded=0;" vertex="1" parent="1">
                    <mxGeometry x="361" y="555" width="82" height="27" as="geometry"/>
                </mxCell>
                <mxCell id="v8HRsV0RRFcLY4EJ3_44-42" value="start of [63:48]" style="text;html=1;strokeColor=none;fillColor=none;align=center;verticalAlign=middle;whiteSpace=wrap;rounded=0;" vertex="1" parent="1">
                    <mxGeometry x="275" y="555" width="82" height="27" as="geometry"/>
                </mxCell>
                <mxCell id="v8HRsV0RRFcLY4EJ3_44-43" value="lane 1" style="text;html=1;strokeColor=none;fillColor=none;align=center;verticalAlign=middle;whiteSpace=wrap;rounded=0;fontSize=11;" vertex="1" parent="1">
                    <mxGeometry x="526" y="470.5" width="49" height="26" as="geometry"/>
                </mxCell>
            </root>
        </mxGraphModel>
    </diagram>
    <diagram id="tujFjBoTCaB5AzK2yjG1" name="JESD204C simulation">
        <mxGraphModel dx="1216" dy="579" grid="1" gridSize="1" guides="1" tooltips="1" connect="1" arrows="1" fold="1" page="1" pageScale="1" pageWidth="1169" pageHeight="827" math="0" shadow="0">
            <root>
                <mxCell id="0"/>
                <mxCell id="1" parent="0"/>
                <mxCell id="D2yyRr6AeVSQP-ZqZAwJ-26" value="" style="group;fillColor=#f8cecc;strokeColor=#b85450;" parent="1" vertex="1" connectable="0">
                    <mxGeometry x="67" y="469" width="641" height="296" as="geometry"/>
                </mxCell>
                <mxCell id="0UUY5VTgBKIBGnPjiiq7-2" value="JESD204C&lt;br&gt;PHY" style="rounded=0;whiteSpace=wrap;html=1;fontSize=10;" parent="D2yyRr6AeVSQP-ZqZAwJ-26" vertex="1">
                    <mxGeometry x="464" y="105" width="120" height="191" as="geometry"/>
                </mxCell>
                <mxCell id="D2yyRr6AeVSQP-ZqZAwJ-1" value="Pattern_gen" style="rounded=0;whiteSpace=wrap;html=1;fontSize=10;" parent="D2yyRr6AeVSQP-ZqZAwJ-26" vertex="1">
                    <mxGeometry x="52" y="189" width="120" height="82" as="geometry"/>
                </mxCell>
                <mxCell id="D2yyRr6AeVSQP-ZqZAwJ-11" style="edgeStyle=entityRelationEdgeStyle;rounded=1;html=1;entryX=0;entryY=0.25;entryDx=0;entryDy=0;strokeWidth=1;fontSize=10;startArrow=none;startFill=0;endArrow=classic;endFill=1;" parent="D2yyRr6AeVSQP-ZqZAwJ-26" source="D2yyRr6AeVSQP-ZqZAwJ-2" target="0UUY5VTgBKIBGnPjiiq7-2" edge="1">
                    <mxGeometry relative="1" as="geometry"/>
                </mxCell>
                <mxCell id="D2yyRr6AeVSQP-ZqZAwJ-2" value="AXI_interconnect" style="rounded=0;whiteSpace=wrap;html=1;fontSize=10;" parent="D2yyRr6AeVSQP-ZqZAwJ-26" vertex="1">
                    <mxGeometry x="52" y="75" width="120" height="82" as="geometry"/>
                </mxCell>
                <mxCell id="D2yyRr6AeVSQP-ZqZAwJ-18" style="edgeStyle=elbowEdgeStyle;rounded=1;html=1;entryX=0;entryY=0.75;entryDx=0;entryDy=0;strokeWidth=1;fontSize=9;startArrow=none;startFill=0;endArrow=classic;endFill=1;elbow=vertical;" parent="D2yyRr6AeVSQP-ZqZAwJ-26" source="D2yyRr6AeVSQP-ZqZAwJ-3" target="0UUY5VTgBKIBGnPjiiq7-2" edge="1">
                    <mxGeometry relative="1" as="geometry"/>
                </mxCell>
                <mxCell id="D2yyRr6AeVSQP-ZqZAwJ-19" value="gt lane * 8" style="edgeLabel;html=1;align=center;verticalAlign=middle;resizable=0;points=[];fontSize=9;labelBackgroundColor=none;" parent="D2yyRr6AeVSQP-ZqZAwJ-18" vertex="1" connectable="0">
                    <mxGeometry x="-0.0587" relative="1" as="geometry">
                        <mxPoint x="-1" y="-10" as="offset"/>
                    </mxGeometry>
                </mxCell>
                <mxCell id="D2yyRr6AeVSQP-ZqZAwJ-3" value="JESD204 Tx core" style="rounded=0;whiteSpace=wrap;html=1;fontSize=10;" parent="D2yyRr6AeVSQP-ZqZAwJ-26" vertex="1">
                    <mxGeometry x="273" y="172" width="120" height="116" as="geometry"/>
                </mxCell>
                <mxCell id="D2yyRr6AeVSQP-ZqZAwJ-5" style="edgeStyle=none;rounded=0;html=1;entryX=0;entryY=0.5;entryDx=0;entryDy=0;strokeWidth=1;fontSize=10;startArrow=none;startFill=0;endArrow=classic;endFill=1;" parent="D2yyRr6AeVSQP-ZqZAwJ-26" source="D2yyRr6AeVSQP-ZqZAwJ-1" target="D2yyRr6AeVSQP-ZqZAwJ-3" edge="1">
                    <mxGeometry relative="1" as="geometry"/>
                </mxCell>
                <mxCell id="D2yyRr6AeVSQP-ZqZAwJ-6" value="AXI_Stream" style="edgeLabel;html=1;align=center;verticalAlign=middle;resizable=0;points=[];fontSize=10;labelBackgroundColor=none;" parent="D2yyRr6AeVSQP-ZqZAwJ-5" vertex="1" connectable="0">
                    <mxGeometry x="-0.2529" y="2" relative="1" as="geometry">
                        <mxPoint x="6" y="-7" as="offset"/>
                    </mxGeometry>
                </mxCell>
                <mxCell id="D2yyRr6AeVSQP-ZqZAwJ-10" style="edgeStyle=entityRelationEdgeStyle;rounded=1;html=1;entryX=0;entryY=0.25;entryDx=0;entryDy=0;strokeWidth=1;fontSize=10;startArrow=none;startFill=0;endArrow=classic;endFill=1;" parent="D2yyRr6AeVSQP-ZqZAwJ-26" source="D2yyRr6AeVSQP-ZqZAwJ-2" target="D2yyRr6AeVSQP-ZqZAwJ-3" edge="1">
                    <mxGeometry relative="1" as="geometry"/>
                </mxCell>
                <mxCell id="D2yyRr6AeVSQP-ZqZAwJ-23" style="edgeStyle=elbowEdgeStyle;rounded=1;elbow=vertical;html=1;strokeWidth=1;fontSize=9;startArrow=none;startFill=0;endArrow=classic;endFill=1;" parent="D2yyRr6AeVSQP-ZqZAwJ-26" source="D2yyRr6AeVSQP-ZqZAwJ-4" edge="1">
                    <mxGeometry relative="1" as="geometry">
                        <mxPoint x="498" y="59" as="targetPoint"/>
                    </mxGeometry>
                </mxCell>
                <mxCell id="D2yyRr6AeVSQP-ZqZAwJ-24" value="AXI_Streaam" style="edgeLabel;html=1;align=center;verticalAlign=middle;resizable=0;points=[];fontSize=9;labelBackgroundColor=none;" parent="D2yyRr6AeVSQP-ZqZAwJ-23" vertex="1" connectable="0">
                    <mxGeometry x="0.1081" y="1" relative="1" as="geometry">
                        <mxPoint x="-11" y="-7" as="offset"/>
                    </mxGeometry>
                </mxCell>
                <mxCell id="D2yyRr6AeVSQP-ZqZAwJ-4" value="JESD204 Rx core" style="rounded=0;whiteSpace=wrap;html=1;fontSize=10;" parent="D2yyRr6AeVSQP-ZqZAwJ-26" vertex="1">
                    <mxGeometry x="271" width="120" height="116" as="geometry"/>
                </mxCell>
                <mxCell id="D2yyRr6AeVSQP-ZqZAwJ-21" style="edgeStyle=elbowEdgeStyle;rounded=1;elbow=vertical;html=1;entryX=1;entryY=0.75;entryDx=0;entryDy=0;strokeWidth=1;fontSize=9;startArrow=none;startFill=0;endArrow=classic;endFill=1;exitX=1;exitY=0.5;exitDx=0;exitDy=0;" parent="D2yyRr6AeVSQP-ZqZAwJ-26" source="0UUY5VTgBKIBGnPjiiq7-2" target="D2yyRr6AeVSQP-ZqZAwJ-4" edge="1">
                    <mxGeometry relative="1" as="geometry">
                        <Array as="points">
                            <mxPoint x="641" y="127"/>
                            <mxPoint x="469" y="84"/>
                        </Array>
                    </mxGeometry>
                </mxCell>
                <mxCell id="D2yyRr6AeVSQP-ZqZAwJ-22" value="gt lane * 8" style="edgeLabel;html=1;align=center;verticalAlign=middle;resizable=0;points=[];fontSize=9;labelBackgroundColor=none;" parent="D2yyRr6AeVSQP-ZqZAwJ-21" vertex="1" connectable="0">
                    <mxGeometry x="-0.0185" y="-1" relative="1" as="geometry">
                        <mxPoint y="-10" as="offset"/>
                    </mxGeometry>
                </mxCell>
                <mxCell id="D2yyRr6AeVSQP-ZqZAwJ-12" style="edgeStyle=entityRelationEdgeStyle;rounded=1;html=1;entryX=0;entryY=0.25;entryDx=0;entryDy=0;strokeWidth=1;fontSize=10;startArrow=none;startFill=0;endArrow=classic;endFill=1;" parent="D2yyRr6AeVSQP-ZqZAwJ-26" source="D2yyRr6AeVSQP-ZqZAwJ-2" target="D2yyRr6AeVSQP-ZqZAwJ-4" edge="1">
                    <mxGeometry relative="1" as="geometry"/>
                </mxCell>
                <mxCell id="D2yyRr6AeVSQP-ZqZAwJ-8" value="" style="endArrow=classic;html=1;rounded=0;strokeWidth=1;fontSize=10;entryX=0;entryY=0.5;entryDx=0;entryDy=0;" parent="D2yyRr6AeVSQP-ZqZAwJ-26" target="D2yyRr6AeVSQP-ZqZAwJ-2" edge="1">
                    <mxGeometry width="50" height="50" relative="1" as="geometry">
                        <mxPoint y="116" as="sourcePoint"/>
                        <mxPoint x="17" y="108" as="targetPoint"/>
                    </mxGeometry>
                </mxCell>
                <mxCell id="D2yyRr6AeVSQP-ZqZAwJ-9" value="SAXI" style="text;html=1;align=center;verticalAlign=middle;resizable=0;points=[];autosize=1;strokeColor=none;fillColor=none;fontSize=10;" parent="D2yyRr6AeVSQP-ZqZAwJ-26" vertex="1">
                    <mxGeometry y="91" width="42" height="25" as="geometry"/>
                </mxCell>
                <mxCell id="D2yyRr6AeVSQP-ZqZAwJ-14" value="M1_AXI" style="text;html=1;strokeColor=none;fillColor=none;align=center;verticalAlign=middle;whiteSpace=wrap;rounded=0;fontSize=9;" parent="D2yyRr6AeVSQP-ZqZAwJ-26" vertex="1">
                    <mxGeometry x="212" y="63" width="55" height="25" as="geometry"/>
                </mxCell>
                <mxCell id="D2yyRr6AeVSQP-ZqZAwJ-16" value="M0_AXI" style="text;html=1;strokeColor=none;fillColor=none;align=center;verticalAlign=middle;whiteSpace=wrap;rounded=0;fontSize=9;" parent="D2yyRr6AeVSQP-ZqZAwJ-26" vertex="1">
                    <mxGeometry x="223" y="126" width="55" height="25" as="geometry"/>
                </mxCell>
                <mxCell id="D2yyRr6AeVSQP-ZqZAwJ-17" value="M2_AXI" style="text;html=1;strokeColor=none;fillColor=none;align=center;verticalAlign=middle;whiteSpace=wrap;rounded=0;fontSize=9;" parent="D2yyRr6AeVSQP-ZqZAwJ-26" vertex="1">
                    <mxGeometry x="176" y="155" width="55" height="25" as="geometry"/>
                </mxCell>
                <mxCell id="D2yyRr6AeVSQP-ZqZAwJ-20" value="" style="endArrow=none;html=1;rounded=1;strokeWidth=1;fontSize=9;elbow=vertical;" parent="D2yyRr6AeVSQP-ZqZAwJ-26" edge="1">
                    <mxGeometry width="50" height="50" relative="1" as="geometry">
                        <mxPoint x="421" y="253" as="sourcePoint"/>
                        <mxPoint x="434" y="244" as="targetPoint"/>
                    </mxGeometry>
                </mxCell>
                <mxCell id="D2yyRr6AeVSQP-ZqZAwJ-25" value="" style="endArrow=none;html=1;rounded=1;strokeWidth=1;fontSize=9;elbow=vertical;" parent="D2yyRr6AeVSQP-ZqZAwJ-26" edge="1">
                    <mxGeometry width="50" height="50" relative="1" as="geometry">
                        <mxPoint x="568" y="91" as="sourcePoint"/>
                        <mxPoint x="581" y="82" as="targetPoint"/>
                    </mxGeometry>
                </mxCell>
                <mxCell id="D2yyRr6AeVSQP-ZqZAwJ-27" value="TB" style="text;html=1;strokeColor=none;fillColor=none;align=center;verticalAlign=middle;whiteSpace=wrap;rounded=0;fontSize=9;" parent="D2yyRr6AeVSQP-ZqZAwJ-26" vertex="1">
                    <mxGeometry x="-3" y="262" width="60" height="30" as="geometry"/>
                </mxCell>
            </root>
        </mxGraphModel>
    </diagram>
    <diagram id="gzphLX5vx2KpRDX8gw2y" name="JESD204C real architecture">
        <mxGraphModel dx="1386" dy="579" grid="1" gridSize="1" guides="1" tooltips="1" connect="1" arrows="1" fold="1" page="1" pageScale="1" pageWidth="1169" pageHeight="827" math="0" shadow="0">
            <root>
                <mxCell id="0"/>
                <mxCell id="1" parent="0"/>
                <mxCell id="86" value="" style="rounded=0;whiteSpace=wrap;html=1;fontSize=10;" vertex="1" parent="1">
                    <mxGeometry x="109" y="185" width="446" height="355" as="geometry"/>
                </mxCell>
                <mxCell id="2" value="Digital Donw Converter(DDC)&lt;br&gt;Block" style="rounded=0;whiteSpace=wrap;html=1;" parent="1" vertex="1">
                    <mxGeometry x="172" y="233" width="120" height="233" as="geometry"/>
                </mxCell>
                <mxCell id="3" value="" style="endArrow=classic;html=1;entryX=0.5;entryY=1;entryDx=0;entryDy=0;" edge="1" parent="1" target="2">
                    <mxGeometry width="50" height="50" relative="1" as="geometry">
                        <mxPoint x="232" y="535" as="sourcePoint"/>
                        <mxPoint x="279" y="488" as="targetPoint"/>
                    </mxGeometry>
                </mxCell>
                <mxCell id="5" value="JMODE 1&lt;br&gt;" style="edgeLabel;html=1;align=center;verticalAlign=middle;resizable=0;points=[];" vertex="1" connectable="0" parent="3">
                    <mxGeometry x="0.3073" y="3" relative="1" as="geometry">
                        <mxPoint x="30" y="9" as="offset"/>
                    </mxGeometry>
                </mxCell>
                <mxCell id="58" value="" style="group" vertex="1" connectable="0" parent="1">
                    <mxGeometry x="369" y="382" width="221" height="121" as="geometry"/>
                </mxCell>
                <mxCell id="59" value="JESD204C&lt;br&gt;Link B" style="rounded=0;whiteSpace=wrap;html=1;container=0;" vertex="1" parent="58">
                    <mxGeometry width="72" height="121" as="geometry"/>
                </mxCell>
                <mxCell id="60" style="edgeStyle=none;html=1;exitX=1;exitY=0.25;exitDx=0;exitDy=0;fontSize=5;endArrow=none;endFill=0;entryX=0;entryY=0.5;entryDx=0;entryDy=0;" edge="1" parent="58" source="59" target="67">
                    <mxGeometry relative="1" as="geometry">
                        <mxPoint x="96" y="30.19230769230768" as="targetPoint"/>
                    </mxGeometry>
                </mxCell>
                <mxCell id="61" style="edgeStyle=none;html=1;exitX=1;exitY=0.75;exitDx=0;exitDy=0;fontSize=5;endArrow=none;endFill=0;entryX=0;entryY=0.5;entryDx=0;entryDy=0;" edge="1" parent="58" source="59" target="73">
                    <mxGeometry relative="1" as="geometry">
                        <mxPoint x="107" y="102.99999999999994" as="targetPoint"/>
                    </mxGeometry>
                </mxCell>
                <mxCell id="62" value="&lt;font style=&quot;font-size: 10px;&quot;&gt;。。。&lt;/font&gt;" style="text;html=1;strokeColor=none;fillColor=none;align=center;verticalAlign=middle;whiteSpace=wrap;rounded=0;fontSize=5;horizontal=0;container=0;" vertex="1" parent="58">
                    <mxGeometry x="138" y="51" width="34" height="19" as="geometry"/>
                </mxCell>
                <mxCell id="63" style="edgeStyle=none;html=1;exitX=0.5;exitY=0;exitDx=0;exitDy=0;endArrow=box;endFill=0;" edge="1" parent="58" source="67">
                    <mxGeometry relative="1" as="geometry">
                        <mxPoint x="190" y="22.714285714285666" as="targetPoint"/>
                    </mxGeometry>
                </mxCell>
                <mxCell id="64" style="edgeStyle=none;html=1;endArrow=box;endFill=0;" edge="1" parent="58" source="68">
                    <mxGeometry relative="1" as="geometry">
                        <mxPoint x="190" y="39.5" as="targetPoint"/>
                    </mxGeometry>
                </mxCell>
                <mxCell id="65" value="&lt;font style=&quot;font-size: 10px;&quot;&gt;DB0+&lt;/font&gt;" style="text;html=1;strokeColor=none;fillColor=none;align=center;verticalAlign=middle;whiteSpace=wrap;rounded=0;spacing=0;horizontal=1;container=0;fontSize=10;" vertex="1" parent="58">
                    <mxGeometry x="193" y="11" width="28" height="23" as="geometry"/>
                </mxCell>
                <mxCell id="66" value="&lt;font style=&quot;font-size: 10px;&quot;&gt;DB0-&lt;/font&gt;" style="text;html=1;strokeColor=none;fillColor=none;align=center;verticalAlign=middle;whiteSpace=wrap;rounded=0;spacing=0;horizontal=1;container=0;fontSize=10;" vertex="1" parent="58">
                    <mxGeometry x="193" y="28" width="28" height="23" as="geometry"/>
                </mxCell>
                <mxCell id="67" value="" style="triangle;whiteSpace=wrap;html=1;container=0;" vertex="1" parent="58">
                    <mxGeometry x="113" y="15" width="30" height="30" as="geometry"/>
                </mxCell>
                <mxCell id="68" value="" style="ellipse;whiteSpace=wrap;html=1;container=0;" vertex="1" parent="58">
                    <mxGeometry x="127" y="37" width="5" height="5" as="geometry"/>
                </mxCell>
                <mxCell id="69" style="edgeStyle=none;html=1;exitX=0.5;exitY=0;exitDx=0;exitDy=0;endArrow=box;endFill=0;" edge="1" parent="58">
                    <mxGeometry relative="1" as="geometry">
                        <mxPoint x="190" y="83.71428571428567" as="targetPoint"/>
                        <mxPoint x="128" y="83.5" as="sourcePoint"/>
                    </mxGeometry>
                </mxCell>
                <mxCell id="70" style="edgeStyle=none;html=1;endArrow=box;endFill=0;" edge="1" parent="58">
                    <mxGeometry relative="1" as="geometry">
                        <mxPoint x="190" y="100.5" as="targetPoint"/>
                        <mxPoint x="132.00000000000762" y="100.5" as="sourcePoint"/>
                    </mxGeometry>
                </mxCell>
                <mxCell id="71" value="&lt;font style=&quot;font-size: 10px;&quot;&gt;DB7+&lt;/font&gt;" style="text;html=1;strokeColor=none;fillColor=none;align=center;verticalAlign=middle;whiteSpace=wrap;rounded=0;spacing=0;horizontal=1;container=0;fontSize=10;" vertex="1" parent="58">
                    <mxGeometry x="193" y="72" width="28" height="23" as="geometry"/>
                </mxCell>
                <mxCell id="72" value="&lt;font style=&quot;font-size: 10px;&quot;&gt;DB7-&lt;/font&gt;" style="text;html=1;strokeColor=none;fillColor=none;align=center;verticalAlign=middle;whiteSpace=wrap;rounded=0;spacing=0;horizontal=1;container=0;fontSize=10;" vertex="1" parent="58">
                    <mxGeometry x="193" y="89" width="28" height="23" as="geometry"/>
                </mxCell>
                <mxCell id="73" value="" style="triangle;whiteSpace=wrap;html=1;container=0;" vertex="1" parent="58">
                    <mxGeometry x="114" y="76" width="30" height="30" as="geometry"/>
                </mxCell>
                <mxCell id="74" value="" style="ellipse;whiteSpace=wrap;html=1;container=0;" vertex="1" parent="58">
                    <mxGeometry x="128" y="98" width="5" height="5" as="geometry"/>
                </mxCell>
                <mxCell id="77" value="" style="endArrow=classic;html=1;rounded=0;fontSize=5;entryX=0;entryY=0.5;entryDx=0;entryDy=0;exitX=0.998;exitY=0.139;exitDx=0;exitDy=0;exitPerimeter=0;" edge="1" parent="1" source="2" target="7">
                    <mxGeometry width="50" height="50" relative="1" as="geometry">
                        <mxPoint x="296" y="306" as="sourcePoint"/>
                        <mxPoint x="346" y="256" as="targetPoint"/>
                    </mxGeometry>
                </mxCell>
                <mxCell id="78" value="" style="endArrow=classic;html=1;rounded=0;fontSize=5;entryX=0;entryY=0.5;entryDx=0;entryDy=0;exitX=1.002;exitY=0.898;exitDx=0;exitDy=0;exitPerimeter=0;" edge="1" parent="1" source="2" target="59">
                    <mxGeometry width="50" height="50" relative="1" as="geometry">
                        <mxPoint x="291.76" y="386.997" as="sourcePoint"/>
                        <mxPoint x="369" y="387.11" as="targetPoint"/>
                    </mxGeometry>
                </mxCell>
                <mxCell id="81" value="&lt;font style=&quot;font-size: 20px;&quot;&gt;....&lt;/font&gt;" style="text;html=1;strokeColor=none;fillColor=none;align=center;verticalAlign=middle;whiteSpace=wrap;rounded=0;fontSize=5;" vertex="1" parent="1">
                    <mxGeometry x="98" y="350" width="60" height="30" as="geometry"/>
                </mxCell>
                <mxCell id="82" value="ADC&amp;nbsp;" style="text;html=1;strokeColor=none;fillColor=none;align=center;verticalAlign=middle;whiteSpace=wrap;rounded=0;fontSize=20;" vertex="1" parent="1">
                    <mxGeometry x="480" y="510" width="60" height="30" as="geometry"/>
                </mxCell>
                <mxCell id="83" style="edgeStyle=elbowEdgeStyle;rounded=0;html=1;exitX=0.25;exitY=1;exitDx=0;exitDy=0;entryX=0.25;entryY=0;entryDx=0;entryDy=0;fontSize=10;endArrow=none;endFill=0;startArrow=classic;startFill=1;" edge="1" parent="1" source="7" target="59">
                    <mxGeometry relative="1" as="geometry"/>
                </mxCell>
                <mxCell id="84" style="edgeStyle=elbowEdgeStyle;rounded=0;html=1;exitX=0.75;exitY=0;exitDx=0;exitDy=0;entryX=0.75;entryY=1;entryDx=0;entryDy=0;fontSize=10;endArrow=classic;endFill=1;startArrow=block;startFill=1;" edge="1" parent="1" source="59" target="7">
                    <mxGeometry relative="1" as="geometry"/>
                </mxCell>
                <mxCell id="90" style="rounded=0;html=1;exitX=1;exitY=0.5;exitDx=0;exitDy=0;fontSize=10;startArrow=none;startFill=0;endArrow=none;endFill=0;" edge="1" parent="1" source="85">
                    <mxGeometry relative="1" as="geometry">
                        <mxPoint x="482" y="351" as="sourcePoint"/>
                        <mxPoint x="423" y="351" as="targetPoint"/>
                    </mxGeometry>
                </mxCell>
                <mxCell id="85" value="" style="triangle;whiteSpace=wrap;html=1;container=0;rotation=180;" vertex="1" parent="1">
                    <mxGeometry x="483" y="336" width="30" height="30" as="geometry"/>
                </mxCell>
                <mxCell id="34" style="edgeStyle=none;html=1;endArrow=box;endFill=0;" edge="1" parent="1">
                    <mxGeometry relative="1" as="geometry">
                        <mxPoint x="559" y="305.5" as="targetPoint"/>
                        <mxPoint x="501.0000000000076" y="305.5" as="sourcePoint"/>
                    </mxGeometry>
                </mxCell>
                <mxCell id="89" value="" style="endArrow=box;html=1;rounded=0;fontSize=10;endFill=0;exitX=0;exitY=0.5;exitDx=0;exitDy=0;" edge="1" parent="1" source="85">
                    <mxGeometry width="50" height="50" relative="1" as="geometry">
                        <mxPoint x="498" y="397" as="sourcePoint"/>
                        <mxPoint x="559" y="351" as="targetPoint"/>
                    </mxGeometry>
                </mxCell>
                <mxCell id="91" value="&lt;font style=&quot;font-size: 10px;&quot;&gt;SYNCSE\&lt;/font&gt;" style="text;html=1;strokeColor=none;fillColor=none;align=center;verticalAlign=middle;whiteSpace=wrap;rounded=0;spacing=0;horizontal=1;container=0;fontSize=10;" vertex="1" parent="1">
                    <mxGeometry x="570" y="340" width="28" height="23" as="geometry"/>
                </mxCell>
                <mxCell id="7" value="JESD204C&lt;br&gt;Link A" style="rounded=0;whiteSpace=wrap;html=1;container=0;" vertex="1" parent="1">
                    <mxGeometry x="369" y="205" width="72" height="121" as="geometry"/>
                </mxCell>
                <mxCell id="27" style="edgeStyle=none;html=1;exitX=1;exitY=0.25;exitDx=0;exitDy=0;fontSize=5;endArrow=none;endFill=0;entryX=0;entryY=0.5;entryDx=0;entryDy=0;" edge="1" parent="1" source="7" target="19">
                    <mxGeometry relative="1" as="geometry">
                        <mxPoint x="465" y="235.19230769230768" as="targetPoint"/>
                    </mxGeometry>
                </mxCell>
                <mxCell id="53" style="edgeStyle=none;html=1;exitX=1;exitY=0.75;exitDx=0;exitDy=0;fontSize=5;endArrow=none;endFill=0;entryX=0;entryY=0.5;entryDx=0;entryDy=0;" edge="1" parent="1" source="7" target="31">
                    <mxGeometry relative="1" as="geometry">
                        <mxPoint x="476" y="307.99999999999994" as="targetPoint"/>
                    </mxGeometry>
                </mxCell>
                <mxCell id="56" value="&lt;font style=&quot;font-size: 10px;&quot;&gt;。。。&lt;/font&gt;" style="text;html=1;strokeColor=none;fillColor=none;align=center;verticalAlign=middle;whiteSpace=wrap;rounded=0;fontSize=5;horizontal=0;container=0;" vertex="1" parent="1">
                    <mxGeometry x="507" y="256" width="34" height="19" as="geometry"/>
                </mxCell>
                <mxCell id="21" style="edgeStyle=none;html=1;exitX=0.5;exitY=0;exitDx=0;exitDy=0;endArrow=box;endFill=0;" edge="1" parent="1" source="19">
                    <mxGeometry relative="1" as="geometry">
                        <mxPoint x="559" y="227.71428571428567" as="targetPoint"/>
                    </mxGeometry>
                </mxCell>
                <mxCell id="23" style="edgeStyle=none;html=1;endArrow=box;endFill=0;" edge="1" parent="1" source="20">
                    <mxGeometry relative="1" as="geometry">
                        <mxPoint x="559" y="244.5" as="targetPoint"/>
                    </mxGeometry>
                </mxCell>
                <mxCell id="24" value="&lt;font style=&quot;font-size: 10px;&quot;&gt;DA0+&lt;/font&gt;" style="text;html=1;strokeColor=none;fillColor=none;align=center;verticalAlign=middle;whiteSpace=wrap;rounded=0;spacing=0;horizontal=1;container=0;fontSize=10;" vertex="1" parent="1">
                    <mxGeometry x="562" y="216" width="28" height="23" as="geometry"/>
                </mxCell>
                <mxCell id="25" value="&lt;font style=&quot;font-size: 10px;&quot;&gt;DA0-&lt;/font&gt;" style="text;html=1;strokeColor=none;fillColor=none;align=center;verticalAlign=middle;whiteSpace=wrap;rounded=0;spacing=0;horizontal=1;container=0;fontSize=10;" vertex="1" parent="1">
                    <mxGeometry x="562" y="233" width="28" height="23" as="geometry"/>
                </mxCell>
                <mxCell id="19" value="" style="triangle;whiteSpace=wrap;html=1;container=0;" vertex="1" parent="1">
                    <mxGeometry x="482" y="220" width="30" height="30" as="geometry"/>
                </mxCell>
                <mxCell id="20" value="" style="ellipse;whiteSpace=wrap;html=1;container=0;" vertex="1" parent="1">
                    <mxGeometry x="496" y="242" width="5" height="5" as="geometry"/>
                </mxCell>
                <mxCell id="33" style="edgeStyle=none;html=1;exitX=0.5;exitY=0;exitDx=0;exitDy=0;endArrow=box;endFill=0;" edge="1" parent="1">
                    <mxGeometry relative="1" as="geometry">
                        <mxPoint x="559" y="288.71428571428567" as="targetPoint"/>
                        <mxPoint x="497" y="288.5" as="sourcePoint"/>
                    </mxGeometry>
                </mxCell>
                <mxCell id="35" value="&lt;font style=&quot;font-size: 10px;&quot;&gt;DA7+&lt;/font&gt;" style="text;html=1;strokeColor=none;fillColor=none;align=center;verticalAlign=middle;whiteSpace=wrap;rounded=0;spacing=0;horizontal=1;container=0;fontSize=10;" vertex="1" parent="1">
                    <mxGeometry x="562" y="277" width="28" height="23" as="geometry"/>
                </mxCell>
                <mxCell id="36" value="&lt;font style=&quot;font-size: 10px;&quot;&gt;DA7-&lt;/font&gt;" style="text;html=1;strokeColor=none;fillColor=none;align=center;verticalAlign=middle;whiteSpace=wrap;rounded=0;spacing=0;horizontal=1;container=0;fontSize=10;" vertex="1" parent="1">
                    <mxGeometry x="562" y="294" width="28" height="23" as="geometry"/>
                </mxCell>
                <mxCell id="31" value="" style="triangle;whiteSpace=wrap;html=1;container=0;" vertex="1" parent="1">
                    <mxGeometry x="483" y="281" width="30" height="30" as="geometry"/>
                </mxCell>
                <mxCell id="32" value="" style="ellipse;whiteSpace=wrap;html=1;container=0;" vertex="1" parent="1">
                    <mxGeometry x="497" y="303" width="5" height="5" as="geometry"/>
                </mxCell>
                <mxCell id="323" value="" style="group" vertex="1" connectable="0" parent="1">
                    <mxGeometry x="617" y="168" width="777" height="427" as="geometry"/>
                </mxCell>
                <mxCell id="321" value="" style="rounded=0;whiteSpace=wrap;html=1;fontSize=16;" vertex="1" parent="323">
                    <mxGeometry x="37.177033492822964" width="739.8229665071771" height="427" as="geometry"/>
                </mxCell>
                <mxCell id="243" value="" style="group" vertex="1" connectable="0" parent="323">
                    <mxGeometry x="33.45933014354067" y="35" width="300.95988835725683" height="122" as="geometry"/>
                </mxCell>
                <mxCell id="184" value="JESD204C&lt;br&gt;PHY A" style="rounded=0;whiteSpace=wrap;html=1;container=0;" vertex="1" parent="243">
                    <mxGeometry x="136.1269537480064" width="157.57161084529506" height="121" as="geometry"/>
                </mxCell>
                <mxCell id="239" value="" style="endArrow=none;html=1;rounded=0;fontSize=7;startArrow=box;startFill=0;entryX=0;entryY=0.306;entryDx=0;entryDy=0;entryPerimeter=0;" edge="1" parent="243" target="184">
                    <mxGeometry width="50" height="50" relative="1" as="geometry">
                        <mxPoint y="37" as="sourcePoint"/>
                        <mxPoint x="131.46507177033496" y="37" as="targetPoint"/>
                    </mxGeometry>
                </mxCell>
                <mxCell id="240" value="" style="endArrow=none;html=1;rounded=0;fontSize=7;entryX=0.002;entryY=0.186;entryDx=0;entryDy=0;startArrow=box;startFill=0;entryPerimeter=0;" edge="1" parent="243" target="184">
                    <mxGeometry width="50" height="50" relative="1" as="geometry">
                        <mxPoint y="22.22" as="sourcePoint"/>
                        <mxPoint x="136.1269537480064" y="22.47" as="targetPoint"/>
                    </mxGeometry>
                </mxCell>
                <mxCell id="241" value="" style="endArrow=none;html=1;rounded=0;fontSize=7;startArrow=box;startFill=0;entryX=0;entryY=0.306;entryDx=0;entryDy=0;entryPerimeter=0;" edge="1" parent="243">
                    <mxGeometry width="50" height="50" relative="1" as="geometry">
                        <mxPoint y="100.77999999999997" as="sourcePoint"/>
                        <mxPoint x="136.1269537480064" y="100.80599999999993" as="targetPoint"/>
                    </mxGeometry>
                </mxCell>
                <mxCell id="242" value="" style="endArrow=none;html=1;rounded=0;fontSize=7;entryX=0.002;entryY=0.186;entryDx=0;entryDy=0;startArrow=box;startFill=0;entryPerimeter=0;" edge="1" parent="243">
                    <mxGeometry width="50" height="50" relative="1" as="geometry">
                        <mxPoint y="84" as="sourcePoint"/>
                        <mxPoint x="136.26121594896333" y="84.28599999999994" as="targetPoint"/>
                    </mxGeometry>
                </mxCell>
                <mxCell id="252" value="&lt;font style=&quot;font-size: 10px;&quot;&gt;。。。&lt;/font&gt;" style="text;html=1;strokeColor=none;fillColor=none;align=center;verticalAlign=middle;whiteSpace=wrap;rounded=0;fontSize=5;horizontal=0;container=0;" vertex="1" parent="243">
                    <mxGeometry x="56.87496012759172" y="51" width="31.700797448165876" height="19" as="geometry"/>
                </mxCell>
                <mxCell id="261" value="&lt;font style=&quot;font-size: 10px;&quot;&gt;gt0~gt7 A_rx&lt;/font&gt;" style="text;html=1;strokeColor=none;fillColor=none;align=center;verticalAlign=middle;whiteSpace=wrap;rounded=0;fontSize=7;movable=1;resizable=1;rotatable=1;deletable=1;editable=1;connectable=1;" vertex="1" parent="243">
                    <mxGeometry x="224.74696969696976" width="69.70693779904306" height="25" as="geometry"/>
                </mxCell>
                <mxCell id="244" value="" style="group" vertex="1" connectable="0" parent="323">
                    <mxGeometry x="33.45933014354067" y="212" width="301.13397129186603" height="121" as="geometry"/>
                </mxCell>
                <mxCell id="245" value="JESD204C&lt;br&gt;PHY B" style="rounded=0;whiteSpace=wrap;html=1;container=0;" vertex="1" parent="244">
                    <mxGeometry x="135.69617224880383" width="158.0023923444976" height="121" as="geometry"/>
                </mxCell>
                <mxCell id="246" value="" style="endArrow=none;html=1;rounded=0;fontSize=7;startArrow=box;startFill=0;entryX=0;entryY=0.306;entryDx=0;entryDy=0;entryPerimeter=0;" edge="1" parent="244" target="245">
                    <mxGeometry width="50" height="50" relative="1" as="geometry">
                        <mxPoint y="37" as="sourcePoint"/>
                        <mxPoint x="131.04904306220095" y="37" as="targetPoint"/>
                    </mxGeometry>
                </mxCell>
                <mxCell id="247" value="" style="endArrow=none;html=1;rounded=0;fontSize=7;entryX=0.002;entryY=0.186;entryDx=0;entryDy=0;startArrow=box;startFill=0;entryPerimeter=0;" edge="1" parent="244" target="245">
                    <mxGeometry width="50" height="50" relative="1" as="geometry">
                        <mxPoint y="22.22" as="sourcePoint"/>
                        <mxPoint x="135.69617224880383" y="22.47" as="targetPoint"/>
                    </mxGeometry>
                </mxCell>
                <mxCell id="248" value="" style="endArrow=none;html=1;rounded=0;fontSize=7;startArrow=box;startFill=0;entryX=0;entryY=0.306;entryDx=0;entryDy=0;entryPerimeter=0;" edge="1" parent="244">
                    <mxGeometry width="50" height="50" relative="1" as="geometry">
                        <mxPoint y="100.77999999999997" as="sourcePoint"/>
                        <mxPoint x="135.69617224880383" y="100.80599999999993" as="targetPoint"/>
                    </mxGeometry>
                </mxCell>
                <mxCell id="249" value="" style="endArrow=none;html=1;rounded=0;fontSize=7;entryX=0.002;entryY=0.186;entryDx=0;entryDy=0;startArrow=box;startFill=0;entryPerimeter=0;" edge="1" parent="244">
                    <mxGeometry width="50" height="50" relative="1" as="geometry">
                        <mxPoint y="84" as="sourcePoint"/>
                        <mxPoint x="135.830009569378" y="84.28599999999994" as="targetPoint"/>
                    </mxGeometry>
                </mxCell>
                <mxCell id="254" value="&lt;font style=&quot;font-size: 10px;&quot;&gt;。。。&lt;/font&gt;" style="text;html=1;strokeColor=none;fillColor=none;align=center;verticalAlign=middle;whiteSpace=wrap;rounded=0;fontSize=5;horizontal=0;container=0;" vertex="1" parent="244">
                    <mxGeometry x="60.41267942583732" y="51" width="31.60047846889952" height="19" as="geometry"/>
                </mxCell>
                <mxCell id="273" value="&lt;font style=&quot;font-size: 10px;&quot;&gt;gt0~gt7 B_rx&lt;/font&gt;" style="text;html=1;strokeColor=none;fillColor=none;align=center;verticalAlign=middle;whiteSpace=wrap;rounded=0;fontSize=7;movable=1;resizable=1;rotatable=1;deletable=1;editable=1;connectable=1;" vertex="1" parent="244">
                    <mxGeometry x="223.0622009569378" width="70.63636363636364" height="25" as="geometry"/>
                </mxCell>
                <mxCell id="250" value="&lt;span style=&quot;color: rgb(0, 0, 0); font-family: Helvetica; font-size: 10px; font-style: normal; font-variant-ligatures: normal; font-variant-caps: normal; font-weight: 400; letter-spacing: normal; orphans: 2; text-align: center; text-indent: 0px; text-transform: none; widows: 2; word-spacing: 0px; -webkit-text-stroke-width: 0px; background-color: rgb(251, 251, 251); text-decoration-thickness: initial; text-decoration-style: initial; text-decoration-color: initial; float: none; display: inline !important;&quot;&gt;rx_inA0+&lt;/span&gt;" style="text;whiteSpace=wrap;html=1;fontSize=10;" vertex="1" parent="323">
                    <mxGeometry x="-8.364832535885167" y="45" width="39.035885167464116" height="21" as="geometry"/>
                </mxCell>
                <mxCell id="251" value="&lt;span style=&quot;color: rgb(0, 0, 0); font-family: Helvetica; font-size: 10px; font-style: normal; font-variant-ligatures: normal; font-variant-caps: normal; font-weight: 400; letter-spacing: normal; orphans: 2; text-align: center; text-indent: 0px; text-transform: none; widows: 2; word-spacing: 0px; -webkit-text-stroke-width: 0px; background-color: rgb(251, 251, 251); text-decoration-thickness: initial; text-decoration-style: initial; text-decoration-color: initial; float: none; display: inline !important;&quot;&gt;rx_inA0-&lt;/span&gt;" style="text;whiteSpace=wrap;html=1;fontSize=10;" vertex="1" parent="323">
                    <mxGeometry x="-8.364832535885167" y="61" width="39.035885167464116" height="21" as="geometry"/>
                </mxCell>
                <mxCell id="255" value="&lt;span style=&quot;color: rgb(0, 0, 0); font-family: Helvetica; font-size: 10px; font-style: normal; font-variant-ligatures: normal; font-variant-caps: normal; font-weight: 400; letter-spacing: normal; orphans: 2; text-align: center; text-indent: 0px; text-transform: none; widows: 2; word-spacing: 0px; -webkit-text-stroke-width: 0px; background-color: rgb(251, 251, 251); text-decoration-thickness: initial; text-decoration-style: initial; text-decoration-color: initial; float: none; display: inline !important;&quot;&gt;rx_inA7+&lt;/span&gt;" style="text;whiteSpace=wrap;html=1;fontSize=10;" vertex="1" parent="323">
                    <mxGeometry x="-8.364832535885167" y="108" width="39.035885167464116" height="21" as="geometry"/>
                </mxCell>
                <mxCell id="256" value="&lt;span style=&quot;color: rgb(0, 0, 0); font-family: Helvetica; font-size: 10px; font-style: normal; font-variant-ligatures: normal; font-variant-caps: normal; font-weight: 400; letter-spacing: normal; orphans: 2; text-align: center; text-indent: 0px; text-transform: none; widows: 2; word-spacing: 0px; -webkit-text-stroke-width: 0px; background-color: rgb(251, 251, 251); text-decoration-thickness: initial; text-decoration-style: initial; text-decoration-color: initial; float: none; display: inline !important;&quot;&gt;rx_inA7-&lt;/span&gt;" style="text;whiteSpace=wrap;html=1;fontSize=10;" vertex="1" parent="323">
                    <mxGeometry x="-8.364832535885167" y="124" width="39.035885167464116" height="21" as="geometry"/>
                </mxCell>
                <mxCell id="257" value="&lt;span style=&quot;color: rgb(0, 0, 0); font-family: Helvetica; font-size: 10px; font-style: normal; font-variant-ligatures: normal; font-variant-caps: normal; font-weight: 400; letter-spacing: normal; orphans: 2; text-align: center; text-indent: 0px; text-transform: none; widows: 2; word-spacing: 0px; -webkit-text-stroke-width: 0px; background-color: rgb(251, 251, 251); text-decoration-thickness: initial; text-decoration-style: initial; text-decoration-color: initial; float: none; display: inline !important;&quot;&gt;rx_inB0+&lt;/span&gt;" style="text;whiteSpace=wrap;html=1;fontSize=10;" vertex="1" parent="323">
                    <mxGeometry x="-8.364832535885167" y="223" width="39.035885167464116" height="21" as="geometry"/>
                </mxCell>
                <mxCell id="258" value="&lt;span style=&quot;color: rgb(0, 0, 0); font-family: Helvetica; font-size: 10px; font-style: normal; font-variant-ligatures: normal; font-variant-caps: normal; font-weight: 400; letter-spacing: normal; orphans: 2; text-align: center; text-indent: 0px; text-transform: none; widows: 2; word-spacing: 0px; -webkit-text-stroke-width: 0px; background-color: rgb(251, 251, 251); text-decoration-thickness: initial; text-decoration-style: initial; text-decoration-color: initial; float: none; display: inline !important;&quot;&gt;rx_inB0-&lt;/span&gt;" style="text;whiteSpace=wrap;html=1;fontSize=10;" vertex="1" parent="323">
                    <mxGeometry x="-8.364832535885167" y="239" width="39.035885167464116" height="21" as="geometry"/>
                </mxCell>
                <mxCell id="259" value="&lt;span style=&quot;color: rgb(0, 0, 0); font-family: Helvetica; font-size: 10px; font-style: normal; font-variant-ligatures: normal; font-variant-caps: normal; font-weight: 400; letter-spacing: normal; orphans: 2; text-align: center; text-indent: 0px; text-transform: none; widows: 2; word-spacing: 0px; -webkit-text-stroke-width: 0px; background-color: rgb(251, 251, 251); text-decoration-thickness: initial; text-decoration-style: initial; text-decoration-color: initial; float: none; display: inline !important;&quot;&gt;rx_inB7+&lt;/span&gt;" style="text;whiteSpace=wrap;html=1;fontSize=10;" vertex="1" parent="323">
                    <mxGeometry x="-8.364832535885167" y="285" width="39.035885167464116" height="21" as="geometry"/>
                </mxCell>
                <mxCell id="260" value="&lt;span style=&quot;color: rgb(0, 0, 0); font-family: Helvetica; font-size: 10px; font-style: normal; font-variant-ligatures: normal; font-variant-caps: normal; font-weight: 400; letter-spacing: normal; orphans: 2; text-align: center; text-indent: 0px; text-transform: none; widows: 2; word-spacing: 0px; -webkit-text-stroke-width: 0px; background-color: rgb(251, 251, 251); text-decoration-thickness: initial; text-decoration-style: initial; text-decoration-color: initial; float: none; display: inline !important;&quot;&gt;rx_inB7-&lt;/span&gt;" style="text;whiteSpace=wrap;html=1;fontSize=10;" vertex="1" parent="323">
                    <mxGeometry x="-8.364832535885167" y="301" width="39.035885167464116" height="21" as="geometry"/>
                </mxCell>
                <mxCell id="294" value="" style="group" vertex="1" connectable="0" parent="323">
                    <mxGeometry x="368.05263157894734" y="35" width="158.0049003189793" height="171" as="geometry"/>
                </mxCell>
                <mxCell id="280" value="JESD204C&lt;br&gt;rx Core A" style="rounded=0;whiteSpace=wrap;html=1;container=0;" vertex="1" parent="294">
                    <mxGeometry width="157.57485645933014" height="171" as="geometry"/>
                </mxCell>
                <mxCell id="282" value="&lt;font style=&quot;font-size: 10px;&quot;&gt;gt0~gt7 A_rx&lt;/font&gt;" style="text;html=1;strokeColor=none;fillColor=none;align=left;verticalAlign=middle;whiteSpace=wrap;rounded=0;fontSize=7;movable=1;resizable=1;rotatable=1;deletable=1;editable=1;connectable=1;" vertex="1" parent="294">
                    <mxGeometry x="0.002507974481706727" width="69.70693779904306" height="25" as="geometry"/>
                </mxCell>
                <mxCell id="285" value="&lt;font style=&quot;font-size: 10px;&quot;&gt;axis_tdata[255:0]&lt;/font&gt;" style="text;html=1;strokeColor=none;fillColor=none;align=right;verticalAlign=middle;whiteSpace=wrap;rounded=0;fontSize=7;movable=1;resizable=1;rotatable=1;deletable=1;editable=1;connectable=1;" vertex="1" parent="294">
                    <mxGeometry x="69.70944577352476" width="88.29545454545455" height="25" as="geometry"/>
                </mxCell>
                <mxCell id="286" value="&lt;font style=&quot;font-size: 10px;&quot;&gt;axis_tvalid&lt;/font&gt;" style="text;html=1;strokeColor=none;fillColor=none;align=right;verticalAlign=middle;whiteSpace=wrap;rounded=0;fontSize=7;movable=1;resizable=1;rotatable=1;deletable=1;editable=1;connectable=1;" vertex="1" parent="294">
                    <mxGeometry x="95.73336921850084" y="19" width="61.3421052631579" height="25" as="geometry"/>
                </mxCell>
                <mxCell id="287" value="&lt;font style=&quot;font-size: 10px;&quot;&gt;sof&lt;/font&gt;" style="text;html=1;strokeColor=none;fillColor=none;align=right;verticalAlign=middle;whiteSpace=wrap;rounded=0;fontSize=7;movable=1;resizable=1;rotatable=1;deletable=1;editable=1;connectable=1;" vertex="1" parent="294">
                    <mxGeometry x="96.66279505582142" y="55" width="61.3421052631579" height="25" as="geometry"/>
                </mxCell>
                <mxCell id="288" value="&lt;font style=&quot;font-size: 10px;&quot;&gt;somf&lt;/font&gt;" style="text;html=1;strokeColor=none;fillColor=none;align=right;verticalAlign=middle;whiteSpace=wrap;rounded=0;fontSize=7;movable=1;resizable=1;rotatable=1;deletable=1;editable=1;connectable=1;" vertex="1" parent="294">
                    <mxGeometry x="95.73336921850084" y="71" width="61.3421052631579" height="25" as="geometry"/>
                </mxCell>
                <mxCell id="289" value="&lt;font style=&quot;font-size: 10px;&quot;&gt;frm_err&lt;/font&gt;" style="text;html=1;strokeColor=none;fillColor=none;align=right;verticalAlign=middle;whiteSpace=wrap;rounded=0;fontSize=7;movable=1;resizable=1;rotatable=1;deletable=1;editable=1;connectable=1;" vertex="1" parent="294">
                    <mxGeometry x="96.23525917065392" y="87" width="61.3421052631579" height="25" as="geometry"/>
                </mxCell>
                <mxCell id="290" value="&lt;font style=&quot;font-size: 10px;&quot;&gt;encommaalign&lt;/font&gt;" style="text;html=1;strokeColor=none;fillColor=none;align=right;verticalAlign=middle;whiteSpace=wrap;rounded=0;fontSize=7;movable=1;resizable=1;rotatable=1;deletable=1;editable=1;connectable=1;" vertex="1" parent="294">
                    <mxGeometry x="96.23525917065392" y="103" width="61.3421052631579" height="25" as="geometry"/>
                </mxCell>
                <mxCell id="295" value="" style="group" vertex="1" connectable="0" parent="323">
                    <mxGeometry x="368.05263157894734" y="212" width="158.0049003189793" height="171" as="geometry"/>
                </mxCell>
                <mxCell id="296" value="JESD204C&lt;br&gt;rx Core B" style="rounded=0;whiteSpace=wrap;html=1;container=0;" vertex="1" parent="295">
                    <mxGeometry width="157.57485645933014" height="171" as="geometry"/>
                </mxCell>
                <mxCell id="297" value="&lt;font style=&quot;font-size: 10px;&quot;&gt;gt0~gt7 B_rx&lt;/font&gt;" style="text;html=1;strokeColor=none;fillColor=none;align=left;verticalAlign=middle;whiteSpace=wrap;rounded=0;fontSize=7;movable=1;resizable=1;rotatable=1;deletable=1;editable=1;connectable=1;" vertex="1" parent="295">
                    <mxGeometry x="0.002507974481706727" width="69.70693779904306" height="25" as="geometry"/>
                </mxCell>
                <mxCell id="298" value="&lt;font style=&quot;font-size: 10px;&quot;&gt;axis_tdata[255:0]&lt;/font&gt;" style="text;html=1;strokeColor=none;fillColor=none;align=right;verticalAlign=middle;whiteSpace=wrap;rounded=0;fontSize=7;movable=1;resizable=1;rotatable=1;deletable=1;editable=1;connectable=1;" vertex="1" parent="295">
                    <mxGeometry x="69.70944577352476" width="88.29545454545455" height="25" as="geometry"/>
                </mxCell>
                <mxCell id="299" value="&lt;font style=&quot;font-size: 10px;&quot;&gt;axis_tvalid&lt;/font&gt;" style="text;html=1;strokeColor=none;fillColor=none;align=right;verticalAlign=middle;whiteSpace=wrap;rounded=0;fontSize=7;movable=1;resizable=1;rotatable=1;deletable=1;editable=1;connectable=1;" vertex="1" parent="295">
                    <mxGeometry x="95.73336921850084" y="19" width="61.3421052631579" height="25" as="geometry"/>
                </mxCell>
                <mxCell id="300" value="&lt;font style=&quot;font-size: 10px;&quot;&gt;sof&lt;/font&gt;" style="text;html=1;strokeColor=none;fillColor=none;align=right;verticalAlign=middle;whiteSpace=wrap;rounded=0;fontSize=7;movable=1;resizable=1;rotatable=1;deletable=1;editable=1;connectable=1;" vertex="1" parent="295">
                    <mxGeometry x="96.66279505582142" y="55" width="61.3421052631579" height="25" as="geometry"/>
                </mxCell>
                <mxCell id="301" value="&lt;font style=&quot;font-size: 10px;&quot;&gt;somf&lt;/font&gt;" style="text;html=1;strokeColor=none;fillColor=none;align=right;verticalAlign=middle;whiteSpace=wrap;rounded=0;fontSize=7;movable=1;resizable=1;rotatable=1;deletable=1;editable=1;connectable=1;" vertex="1" parent="295">
                    <mxGeometry x="95.73336921850084" y="71" width="61.3421052631579" height="25" as="geometry"/>
                </mxCell>
                <mxCell id="302" value="&lt;font style=&quot;font-size: 10px;&quot;&gt;frm_err&lt;/font&gt;" style="text;html=1;strokeColor=none;fillColor=none;align=right;verticalAlign=middle;whiteSpace=wrap;rounded=0;fontSize=7;movable=1;resizable=1;rotatable=1;deletable=1;editable=1;connectable=1;" vertex="1" parent="295">
                    <mxGeometry x="96.23525917065392" y="87" width="61.3421052631579" height="25" as="geometry"/>
                </mxCell>
                <mxCell id="303" value="&lt;font style=&quot;font-size: 10px;&quot;&gt;encommaalign&lt;/font&gt;" style="text;html=1;strokeColor=none;fillColor=none;align=right;verticalAlign=middle;whiteSpace=wrap;rounded=0;fontSize=7;movable=1;resizable=1;rotatable=1;deletable=1;editable=1;connectable=1;" vertex="1" parent="295">
                    <mxGeometry x="96.23525917065392" y="103" width="61.3421052631579" height="25" as="geometry"/>
                </mxCell>
                <mxCell id="312" style="rounded=0;html=1;entryX=0;entryY=0.5;entryDx=0;entryDy=0;strokeWidth=1;fontSize=10;startArrow=none;startFill=0;endArrow=classic;endFill=1;exitX=1;exitY=0.5;exitDx=0;exitDy=0;" edge="1" parent="323" source="261" target="282">
                    <mxGeometry relative="1" as="geometry">
                        <mxPoint x="327.9132376395534" y="57.49999999999994" as="sourcePoint"/>
                        <mxPoint x="418.24413476873985" y="30.5" as="targetPoint"/>
                    </mxGeometry>
                </mxCell>
                <mxCell id="314" style="rounded=0;html=1;strokeWidth=1;fontSize=10;startArrow=none;startFill=0;endArrow=classic;endFill=1;entryX=0;entryY=0.071;entryDx=0;entryDy=0;exitX=1;exitY=0.5;exitDx=0;exitDy=0;entryPerimeter=0;" edge="1" parent="323" source="273" target="296">
                    <mxGeometry relative="1" as="geometry">
                        <mxPoint x="418.24162679425837" y="210" as="targetPoint"/>
                        <mxPoint x="324.36961722488036" y="225" as="sourcePoint"/>
                    </mxGeometry>
                </mxCell>
                <mxCell id="315" value="&lt;font style=&quot;font-size: 16px;&quot;&gt;Data processigng&lt;/font&gt;" style="whiteSpace=wrap;html=1;fontSize=10;" vertex="1" parent="323">
                    <mxGeometry x="574.3851674641148" y="36.5" width="111.5311004784689" height="344.5" as="geometry"/>
                </mxCell>
                <mxCell id="316" value="" style="edgeStyle=none;rounded=0;html=1;strokeWidth=1;fontSize=10;startArrow=none;startFill=0;endArrow=classic;endFill=1;exitX=1;exitY=0.5;exitDx=0;exitDy=0;entryX=-0.003;entryY=0.032;entryDx=0;entryDy=0;entryPerimeter=0;" edge="1" parent="323" source="285" target="315">
                    <mxGeometry relative="1" as="geometry"/>
                </mxCell>
                <mxCell id="318" value="" style="edgeStyle=none;rounded=0;html=1;strokeWidth=1;fontSize=10;startArrow=none;startFill=0;endArrow=classic;endFill=1;exitX=1;exitY=0.5;exitDx=0;exitDy=0;entryX=0;entryY=0.545;entryDx=0;entryDy=0;entryPerimeter=0;" edge="1" parent="323" source="298" target="315">
                    <mxGeometry relative="1" as="geometry">
                        <mxPoint x="574.3876754385967" y="226.5" as="sourcePoint"/>
                        <mxPoint x="624.7972248803828" y="226.889" as="targetPoint"/>
                    </mxGeometry>
                </mxCell>
                <mxCell id="322" value="XCKU11P" style="text;html=1;strokeColor=none;fillColor=none;align=center;verticalAlign=middle;whiteSpace=wrap;rounded=0;fontSize=20;" vertex="1" parent="323">
                    <mxGeometry x="63.20095693779904" y="390" width="55.76555023923445" height="30" as="geometry"/>
                </mxCell>
            </root>
        </mxGraphModel>
    </diagram>
</mxfile>